<svg width="256" height="256" viewBox="0 0 256 256" xmlns="http://www.w3.org/2000/svg"><mask id="satori_om-id"><rect x="0" y="0" width="256" height="256" fill="#fff"/></mask><path x="0" y="0" width="256" height="256" fill="#1a1816" d="M56,0 h144 a56,56 0 0 1 56,56 v144 a56,56 0 0 1 -56,56 h-144 a56,56 0 0 1 -56,-56 v-144 a56,56 0 0 1 56,-56"/><mask id="satori_om-id-0"><rect x="86" y="16" width="85" height="210" fill="#fff"/></mask><mask id="satori_om-id-0-0"><rect x="86" y="16" width="53" height="210" fill="#fff"/></mask><g  ><path fill="#ece9e1" d="M88.9 237.2L88.9 237.2Q82.4 237.2 78.3 233.7Q74.2 230.2 74.2 224.6L74.2 224.6Q74.2 220.3 76.7 217.6Q79.1 214.9 82.8 214.9L82.8 214.9Q86.4 214.9 87.9 217.0Q89.4 219.1 90.3 221.8Q91.3 224.6 92.5 226.7Q93.8 228.8 96.5 228.8L96.5 228.8Q100.5 228.8 102.6 224.1Q104.7 219.5 104.7 211.1L104.7 211.1L104.7 54.7Q104.7 50.3 103.3 48.8Q102.0 47.3 97.5 46.5L97.5 46.5L92.7 45.6Q90.0 45 90.0 43.1L90.0 43.1Q90.0 40.8 93.1 40.8L93.1 40.8L131.2 40.8Q134.3 40.8 134.3 43.1L134.3 43.1Q134.3 45 131.6 45.6L131.6 45.6L126.7 46.5Q122.3 47.3 121.0 48.8Q119.6 50.3 119.6 54.7L119.6 54.7L119.6 182.8Q119.6 208.0 111.4 222.6Q103.2 237.2 88.9 237.2Z "/></g><mask id="satori_om-id-0-1"><rect x="145" y="186" width="26" height="26" fill="#fff"/></mask><path x="145" y="186" width="26" height="26" fill="#c89a5e" d="M158,186 h0 a13,13 0 0 1 13,13 v0 a13,13 0 0 1 -13,13 h0 a13,13 0 0 1 -13,-13 v0 a13,13 0 0 1 13,-13"/></svg>